<?xml version="1.0" encoding="UTF-8"?>
<svg xmlns="http://www.w3.org/2000/svg" version="1.1" width="420px" height="420px" style="shape-rendering:geometricPrecision; text-rendering:geometricPrecision; image-rendering:optimizeQuality; fill-rule:evenodd; clip-rule:evenodd" xmlns:xlink="http://www.w3.org/1999/xlink">
<g><path style="opacity:1" fill="#a457ff" d="M 172.5,46.5 C 181.498,46.3286 185.331,50.6619 184,59.5C 179.449,66.4714 174.116,67.1381 168,61.5C 165.407,55.1218 166.907,50.1218 172.5,46.5 Z"/></g>
<g><path style="opacity:1" fill="#a457ff" d="M 241.5,46.5 C 251.148,47.2119 254.314,52.2119 251,61.5C 246,66.8333 241,66.8333 236,61.5C 232.838,54.5142 234.671,49.5142 241.5,46.5 Z"/></g>
<g><path style="opacity:1" fill="#9e4eff" d="M 104.5,89.5 C 116.262,89.5433 122.929,95.3766 124.5,107C 123.392,117.274 117.726,123.108 107.5,124.5C 96.7331,123.566 90.7331,117.733 89.5,107C 90.4675,97.5431 95.4675,91.7098 104.5,89.5 Z"/></g>
<g><path style="opacity:1" fill="#9e4dff" d="M 172.5,89.5 C 184.235,89.74 191.235,95.5734 193.5,107C 191.64,117.026 185.64,122.859 175.5,124.5C 159.363,121.23 154.53,111.897 161,96.5C 164.263,93.0374 168.097,90.7041 172.5,89.5 Z"/></g>
<g><path style="opacity:1" fill="#9e4eff" d="M 241.5,89.5 C 259.034,91.5539 264.534,100.887 258,117.5C 249.85,125.609 241.017,126.442 231.5,120C 221.81,105.6 225.143,95.4329 241.5,89.5 Z"/></g>
<g><path style="opacity:1" fill="#9e4eff" d="M 309.5,89.5 C 324.59,90.6948 330.756,98.6948 328,113.5C 321.578,124.315 312.744,126.815 301.5,121C 293.981,113.738 292.814,105.571 298,96.5C 301.263,93.0374 305.097,90.7041 309.5,89.5 Z"/></g>
<g><path style="opacity:1" fill="#9c4aff" d="M 169.5,149.5 C 188.029,148.2 198.695,156.7 201.5,175C 199.333,190.5 190.5,199.333 175,201.5C 156.063,198.56 147.73,187.56 150,168.5C 153.121,158.544 159.621,152.21 169.5,149.5 Z"/></g>
<g><path style="opacity:1" fill="#9c4aff" d="M 237.5,149.5 C 259.978,148.477 270.478,159.144 269,181.5C 261.961,199.402 249.461,204.902 231.5,198C 218.306,189.028 214.806,177.195 221,162.5C 225.166,156.35 230.666,152.017 237.5,149.5 Z"/></g>
<g><path style="opacity:1" fill="#9e4dff" d="M 101.5,158.5 C 120.448,157.615 127.282,166.282 122,184.5C 112.732,195.952 103.065,196.285 93,185.5C 87.0611,173.559 89.8945,164.559 101.5,158.5 Z"/></g>
<g><path style="opacity:1" fill="#9e4dff" d="M 305.5,158.5 C 323.102,156.6 330.602,164.266 328,181.5C 323.546,191.645 316.046,195.145 305.5,192C 294.83,185.162 292.33,175.995 298,164.5C 300.114,161.879 302.614,159.879 305.5,158.5 Z"/></g>
<g><path style="opacity:1" fill="#a458ff" d="M 53.5,166.5 C 62.4194,166.244 66.086,170.411 64.5,179C 61.9477,183.939 57.9477,185.605 52.5,184C 46.0446,179.89 45.0446,174.723 49.5,168.5C 51.0255,168.006 52.3588,167.339 53.5,166.5 Z"/></g>
<g><path style="opacity:1" fill="#a458ff" d="M 360.5,166.5 C 370.572,166.325 374.072,170.991 371,180.5C 365.667,185.833 360.333,185.833 355,180.5C 352.449,173.972 354.282,169.305 360.5,166.5 Z"/></g>
<g><path style="opacity:1" fill="#9c4aff" d="M 172.5,217.5 C 189.325,218.491 198.991,227.324 201.5,244C 198.56,262.937 187.56,271.27 168.5,269C 153.734,263.644 147.568,253.144 150,237.5C 153.642,226.351 161.142,219.684 172.5,217.5 Z"/></g>
<g><path style="opacity:1" fill="#9c4aff" d="M 241.5,217.5 C 261.753,219.253 270.919,230.253 269,250.5C 263.644,265.266 253.144,271.432 237.5,269C 220.914,262.426 215.08,250.592 220,233.5C 224.666,224.605 231.833,219.271 241.5,217.5 Z"/></g>
<g><path style="opacity:1" fill="#9e4eff" d="M 104.5,225.5 C 119.9,226.959 126.067,235.292 123,250.5C 118.243,259.788 110.743,262.954 100.5,260C 89.6868,253.586 87.1868,244.753 93,233.5C 96.1496,229.689 99.983,227.023 104.5,225.5 Z"/></g>
<g><path style="opacity:1" fill="#9e4eff" d="M 309.5,225.5 C 324.682,227.18 330.849,235.514 328,250.5C 323.243,259.788 315.743,262.954 305.5,260C 295.223,254.079 292.389,245.579 297,234.5C 300.284,230.016 304.451,227.016 309.5,225.5 Z"/></g>
<g><path style="opacity:1" fill="#a457ff" d="M 52.5,234.5 C 62.8427,233.999 66.6761,238.666 64,248.5C 59.1434,253.37 53.9767,253.703 48.5,249.5C 45.3632,243.251 46.6966,238.251 52.5,234.5 Z"/></g>
<g><path style="opacity:1" fill="#a458ff" d="M 359.5,234.5 C 371.513,234.585 374.846,239.919 369.5,250.5C 364.117,253.522 359.284,252.855 355,248.5C 352.606,242.517 354.106,237.851 359.5,234.5 Z"/></g>
<g><path style="opacity:1" fill="#9e4dff" d="M 104.5,294.5 C 116.312,294.48 122.979,300.313 124.5,312C 123.333,322.5 117.5,328.333 107,329.5C 96.5,328.333 90.6667,322.5 89.5,312C 90.4675,302.543 95.4675,296.71 104.5,294.5 Z"/></g>
<g><path style="opacity:1" fill="#9e4dff" d="M 172.5,294.5 C 184.679,294.241 191.679,300.075 193.5,312C 190.495,325.669 182.162,331.002 168.5,328C 161.219,324.945 157.886,319.445 158.5,311.5C 158.817,302.188 163.484,296.521 172.5,294.5 Z"/></g>
<g><path style="opacity:1" fill="#9e4dff" d="M 241.5,294.5 C 259.034,296.554 264.534,305.887 258,322.5C 247.417,332.126 237.417,331.459 228,320.5C 223.295,306.907 227.795,298.241 241.5,294.5 Z"/></g>
<g><path style="opacity:1" fill="#9e4eff" d="M 309.5,294.5 C 321.312,294.48 327.979,300.313 329.5,312C 328.333,322.5 322.5,328.333 312,329.5C 296.146,325.792 291.479,316.458 298,301.5C 301.225,297.979 305.058,295.646 309.5,294.5 Z"/></g>
<g><path style="opacity:1" fill="#a457ff" d="M 173.5,353.5 C 183.24,354.311 186.407,359.311 183,368.5C 178.446,373.247 173.612,373.58 168.5,369.5C 164.999,362.342 166.666,357.009 173.5,353.5 Z"/></g>
<g><path style="opacity:1" fill="#a458ff" d="M 241.5,353.5 C 251.163,354.29 254.33,359.29 251,368.5C 247.565,372.654 243.398,373.487 238.5,371C 234.87,367.95 233.703,364.117 235,359.5C 236.436,356.558 238.603,354.558 241.5,353.5 Z"/></g>
</svg>
