<?xml version="1.0" encoding="UTF-8"?>
<!DOCTYPE svg PUBLIC "-//W3C//DTD SVG 1.1//EN" "http://www.w3.org/Graphics/SVG/1.1/DTD/svg11.dtd">
<svg xmlns="http://www.w3.org/2000/svg" version="1.1" width="399px" height="399px" style="shape-rendering:geometricPrecision; text-rendering:geometricPrecision; image-rendering:optimizeQuality; fill-rule:evenodd; clip-rule:evenodd" xmlns:xlink="http://www.w3.org/1999/xlink">
<g><path style="opacity:1" fill="#000000" d="M -0.5,-0.5 C 132.5,-0.5 265.5,-0.5 398.5,-0.5C 398.5,132.5 398.5,265.5 398.5,398.5C 265.5,398.5 132.5,398.5 -0.5,398.5C -0.5,265.5 -0.5,132.5 -0.5,-0.5 Z"/></g>
<g><path style="opacity:1" fill="#fafafa" d="M 89.5,86.5 C 112.502,86.3334 135.502,86.5 158.5,87C 159.416,87.3742 160.25,87.8742 161,88.5C 162.147,100.408 162.647,112.408 162.5,124.5C 172.833,160.167 160.167,172.833 124.5,162.5C 113.167,162.333 101.833,162.167 90.5,162C 89.5838,161.626 88.7504,161.126 88,160.5C 86.3543,137.255 86.0209,113.921 87,90.5C 87.6622,89.0161 88.4955,87.6828 89.5,86.5 Z"/></g>
<g><path style="opacity:1" fill="#fcfcfc" d="M 240.5,86.5 C 263.502,86.3334 286.502,86.5 309.5,87C 310.333,87.8333 311.167,88.6667 312,89.5C 312.667,112.833 312.667,136.167 312,159.5C 311.5,160 311,160.5 310.5,161C 298.592,162.147 286.592,162.647 274.5,162.5C 263.167,162.333 251.833,162.167 240.5,162C 239.692,161.692 239.025,161.192 238.5,160.5C 237.344,136.876 237.177,113.209 238,89.5C 239.045,88.6266 239.878,87.6266 240.5,86.5 Z"/></g>
<g><path style="opacity:1" fill="#fdfdfd" d="M 164.5,162.5 C 188.408,162.172 212.241,162.506 236,163.5C 237.646,187.079 237.979,210.745 237,234.5C 236.167,235.333 235.333,236.167 234.5,237C 211.5,237.667 188.5,237.667 165.5,237C 164.584,236.626 163.75,236.126 163,235.5C 162.333,211.833 162.333,188.167 163,164.5C 163.717,163.956 164.217,163.289 164.5,162.5 Z"/></g>
<g><path style="opacity:1" fill="#fcfcfc" d="M 89.5,237.5 C 112.836,237.333 136.169,237.5 159.5,238C 160.333,238.833 161.167,239.667 162,240.5C 162.667,263.5 162.667,286.5 162,309.5C 161.167,310.333 160.333,311.167 159.5,312C 136.167,312.667 112.833,312.667 89.5,312C 89,311.5 88.5,311 88,310.5C 86.3543,287.255 86.0209,263.921 87,240.5C 88.045,239.627 88.8783,238.627 89.5,237.5 Z"/></g>
<g><path style="opacity:1" fill="#fefefe" d="M 239.5,237.5 C 263.169,237.333 286.836,237.5 310.5,238C 311,238.5 311.5,239 312,239.5C 312.667,262.833 312.667,286.167 312,309.5C 311.692,310.308 311.192,310.975 310.5,311.5C 286.876,312.656 263.209,312.823 239.5,312C 239,311.5 238.5,311 238,310.5C 237.333,286.833 237.333,263.167 238,239.5C 238.717,238.956 239.217,238.289 239.5,237.5 Z"/></g>
</svg>
